<svg width="16" height="16" viewBox="0 0 16 16" fill="none" xmlns="http://www.w3.org/2000/svg">
<g clip-path="url(#clip0_31_27)">
<mask id="mask0_31_27" style="mask-type:luminance" maskUnits="userSpaceOnUse" x="0" y="0" width="16" height="16">
<path d="M0 0H16V16H0V0Z" fill="white"/>
</mask>
<g mask="url(#mask0_31_27)">
<path d="M7.08406 1.13439C7.06676 1.00204 7.078 0.867526 7.11702 0.739888C7.15605 0.612249 7.22195 0.494447 7.3103 0.394404C7.39865 0.29436 7.5074 0.214395 7.62923 0.159885C7.75107 0.105376 7.88316 0.0775866 8.01663 0.0783859C8.58577 0.0783859 9.02463 0.575529 8.94863 1.13439L8.01663 7.98581L7.08406 1.13439Z" fill="black"/>
<path d="M7.08406 14.8314C7.06676 14.9638 7.078 15.0983 7.11702 15.2259C7.15605 15.3535 7.22195 15.4713 7.3103 15.5714C7.39865 15.6714 7.5074 15.7514 7.62923 15.8059C7.75107 15.8604 7.88316 15.8882 8.01663 15.8874C8.58577 15.8874 9.02463 15.3903 8.94863 14.8314L8.01663 7.97998L7.08406 14.8314Z" fill="black"/>
<path d="M12.2488 2.48517C12.3308 2.37943 12.4343 2.29228 12.5525 2.22946C12.6706 2.16664 12.8007 2.12958 12.9343 2.12073C13.0678 2.11187 13.2017 2.13142 13.3271 2.17809C13.4525 2.22475 13.5666 2.29748 13.6619 2.39146C13.7568 2.48499 13.8303 2.59789 13.8776 2.72246C13.9248 2.84702 13.9446 2.98031 13.9356 3.11322C13.9266 3.24612 13.889 3.37553 13.8254 3.49258C13.7618 3.60963 13.6737 3.71158 13.5671 3.79146L8.01562 7.98289L12.2488 2.48517Z" fill="black"/>
<path d="M2.46828 12.1739C2.36167 12.2537 2.27356 12.3557 2.20996 12.4727C2.14636 12.5898 2.10878 12.7192 2.09977 12.8521C2.09077 12.985 2.11056 13.1183 2.15778 13.2429C2.20501 13.3674 2.27856 13.4803 2.37342 13.5739C2.77628 13.9727 3.44199 13.9281 3.78714 13.4801L8.01971 7.98242L2.46828 12.1739Z" fill="black"/>
<path d="M14.9345 7.06013C15.0667 7.04182 15.2013 7.05196 15.3294 7.08987C15.4574 7.12778 15.5758 7.19258 15.6767 7.27995C15.7777 7.36732 15.8588 7.47523 15.9147 7.59647C15.9706 7.71771 15.9999 7.84949 16.0008 7.98299C16.0001 8.11656 15.9709 8.24845 15.915 8.3698C15.8592 8.49116 15.7781 8.59918 15.6771 8.68663C15.5762 8.77407 15.4577 8.83892 15.3296 8.87683C15.2015 8.91474 15.0668 8.92482 14.9345 8.90641L8.01562 7.98356L14.9345 7.06013Z" fill="black"/>
<path d="M1.10201 7.06021C0.969731 7.04181 0.835045 7.05189 0.70697 7.08975C0.578896 7.12762 0.460388 7.19241 0.35938 7.27979C0.258371 7.36716 0.177192 7.47511 0.121277 7.59639C0.0653612 7.71768 0.0359993 7.84951 0.0351562 7.98307C0.0351563 8.54764 0.538013 8.98192 1.10201 8.90649L8.0203 7.98364L1.10201 7.06021Z" fill="black"/>
<path d="M13.5676 12.1739C13.6742 12.2537 13.7623 12.3557 13.8259 12.4727C13.8895 12.5898 13.9271 12.7192 13.9361 12.8521C13.9451 12.985 13.9253 13.1183 13.8781 13.2429C13.8309 13.3674 13.7573 13.4803 13.6625 13.5739C13.2596 13.9727 12.5939 13.9281 12.2488 13.4801L8.01562 7.98242L13.5676 12.1739Z" fill="black"/>
<path d="M3.78714 2.48525C3.70512 2.37942 3.60158 2.29218 3.48337 2.22931C3.36516 2.16643 3.23495 2.12934 3.10135 2.12048C2.96775 2.11163 2.83379 2.13121 2.70831 2.17793C2.58284 2.22465 2.46869 2.29746 2.37342 2.39154C2.27856 2.48507 2.20501 2.59797 2.15778 2.72253C2.11056 2.84709 2.09077 2.98038 2.09977 3.11329C2.10878 3.2462 2.14636 3.3756 2.20996 3.49265C2.27356 3.60971 2.36167 3.71166 2.46828 3.79154L8.01971 7.98296L3.78714 2.48525Z" fill="black"/>
</g>
</g>
<defs>
<clipPath id="clip0_31_27">
<rect width="16" height="16" fill="white"/>
</clipPath>
</defs>
</svg>
