<svg width="16" height="16" viewBox="0 0 16 16" fill="none" xmlns="http://www.w3.org/2000/svg">
<g clip-path="url(#clip0_20_112)">
<mask id="mask0_20_112" style="mask-type:luminance" maskUnits="userSpaceOnUse" x="0" y="0" width="16" height="16">
<path d="M0 0H16V16H0V0Z" fill="white"/>
</mask>
<g mask="url(#mask0_20_112)">
<path d="M7.08406 1.13429C7.06676 1.00195 7.078 0.867434 7.11702 0.739796C7.15605 0.612158 7.22195 0.494356 7.3103 0.394312C7.39865 0.294269 7.5074 0.214303 7.62923 0.159794C7.75107 0.105284 7.88316 0.077495 8.01663 0.0782944C8.58577 0.0782944 9.02463 0.575437 8.94863 1.13429L8.01663 7.98572L7.08406 1.13429Z" fill="#4DD537"/>
<path d="M7.08406 14.8314C7.06676 14.9638 7.078 15.0983 7.11702 15.2259C7.15605 15.3536 7.22195 15.4714 7.3103 15.5714C7.39865 15.6715 7.5074 15.7514 7.62923 15.8059C7.75107 15.8604 7.88316 15.8882 8.01663 15.8874C8.58577 15.8874 9.02463 15.3903 8.94863 14.8314L8.01663 7.98001L7.08406 14.8314Z" fill="#4DD537"/>
<path d="M12.2488 2.48514C12.3308 2.3794 12.4343 2.29225 12.5525 2.22943C12.6706 2.16661 12.8007 2.12955 12.9343 2.1207C13.0678 2.11184 13.2017 2.13139 13.3271 2.17806C13.4525 2.22472 13.5666 2.29745 13.6619 2.39143C13.7568 2.48496 13.8303 2.59786 13.8776 2.72242C13.9248 2.84699 13.9446 2.98027 13.9356 3.11318C13.9266 3.24609 13.889 3.37549 13.8254 3.49255C13.7618 3.6096 13.6737 3.71155 13.5671 3.79143L8.01562 7.98286L12.2488 2.48514Z" fill="#4DD537"/>
<path d="M2.46828 12.1737C2.36167 12.2536 2.27356 12.3556 2.20996 12.4726C2.14636 12.5897 2.10878 12.7191 2.09977 12.852C2.09077 12.9849 2.11056 13.1182 2.15778 13.2427C2.20501 13.3673 2.27856 13.4802 2.37342 13.5737C2.77628 13.9726 3.44199 13.928 3.78714 13.48L8.01971 7.9823L2.46828 12.1737Z" fill="#4DD537"/>
<path d="M14.9345 7.06001C15.0667 7.0417 15.2013 7.05184 15.3294 7.08975C15.4574 7.12766 15.5758 7.19246 15.6767 7.27983C15.7777 7.36719 15.8588 7.47511 15.9147 7.59635C15.9706 7.71759 15.9999 7.84937 16.0008 7.98286C16.0001 8.11644 15.9709 8.24832 15.915 8.36968C15.8592 8.49104 15.7781 8.59906 15.6771 8.68651C15.5762 8.77395 15.4577 8.8388 15.3296 8.87671C15.2015 8.91461 15.0668 8.9247 14.9345 8.90629L8.01562 7.98343L14.9345 7.06001Z" fill="#4DD537"/>
<path d="M1.10201 7.05999C0.969731 7.0416 0.835045 7.05167 0.70697 7.08954C0.578896 7.12741 0.460388 7.1922 0.35938 7.27957C0.258371 7.36695 0.177192 7.47489 0.121277 7.59618C0.0653612 7.71747 0.0359993 7.8493 0.0351562 7.98285C0.0351563 8.54742 0.538013 8.98171 1.10201 8.90628L8.0203 7.98342L1.10201 7.05999Z" fill="#4DD537"/>
<path d="M13.5676 12.1737C13.6742 12.2536 13.7623 12.3556 13.8259 12.4726C13.8895 12.5897 13.9271 12.7191 13.9361 12.852C13.9451 12.9849 13.9253 13.1182 13.8781 13.2427C13.8309 13.3673 13.7573 13.4802 13.6625 13.5737C13.2596 13.9726 12.5939 13.928 12.2488 13.48L8.01562 7.9823L13.5676 12.1737Z" fill="#4DD537"/>
<path d="M3.78714 2.48516C3.70512 2.37933 3.60158 2.29209 3.48337 2.22921C3.36516 2.16634 3.23495 2.12925 3.10135 2.12039C2.96775 2.11153 2.83379 2.13111 2.70831 2.17784C2.58284 2.22456 2.46869 2.29736 2.37342 2.39144C2.27856 2.48497 2.20501 2.59788 2.15778 2.72244C2.11056 2.847 2.09077 2.98029 2.09977 3.1132C2.10878 3.24611 2.14636 3.37551 2.20996 3.49256C2.27356 3.60962 2.36167 3.71156 2.46828 3.79144L8.01971 7.98287L3.78714 2.48516Z" fill="#4DD537"/>
</g>
</g>
<defs>
<clipPath id="clip0_20_112">
<rect width="16" height="16" fill="white"/>
</clipPath>
</defs>
</svg>
